<svg width="28" height="27" viewBox="0 0 28 27" fill="none" xmlns="http://www.w3.org/2000/svg">
<mask id="mask0" mask-type="alpha" maskUnits="userSpaceOnUse" x="0" y="0" width="28" height="27">
<path fill-rule="evenodd" clip-rule="evenodd" d="M0.500488 13.4167C0.500488 6.00685 6.50733 0 13.9172 0C21.327 0 27.3338 6.00685 27.3338 13.4167C27.3338 20.8265 21.327 26.8333 13.9172 26.8333C6.50733 26.8333 0.500488 20.8265 0.500488 13.4167Z" fill="white"/>
</mask>
<g mask="url(#mask0)">
<path fill-rule="evenodd" clip-rule="evenodd" d="M0.500488 13.4167C0.500488 6.00685 6.50733 0 13.9172 0C21.327 0 27.3338 6.00685 27.3338 13.4167C27.3338 20.8265 21.327 26.8333 13.9172 26.8333C6.50733 26.8333 0.500488 20.8265 0.500488 13.4167Z" fill="#F9FAFE"/>
<path fill-rule="evenodd" clip-rule="evenodd" d="M13.9179 6.26111C11.9746 6.26111 11.7307 6.26961 10.9674 6.30434C10.2057 6.33922 9.68569 6.45983 9.23071 6.63678C8.76008 6.81955 8.36085 7.06403 7.96312 7.46191C7.56509 7.85965 7.3206 8.25887 7.13724 8.72935C6.95984 9.18448 6.83909 9.70461 6.8048 10.4661C6.77066 11.2294 6.76172 11.4734 6.76172 13.4167C6.76172 15.3601 6.77037 15.6032 6.80495 16.3665C6.83998 17.1283 6.96059 17.6482 7.13739 18.1032C7.32031 18.5739 7.56479 18.9731 7.96267 19.3708C8.36026 19.7689 8.75948 20.0139 9.22981 20.1967C9.68509 20.3736 10.2052 20.4943 10.9668 20.5291C11.7301 20.5639 11.9739 20.5724 13.9171 20.5724C15.8605 20.5724 16.1037 20.5639 16.867 20.5291C17.6287 20.4943 18.1493 20.3736 18.6046 20.1967C19.0751 20.0139 19.4737 19.7689 19.8713 19.3708C20.2693 18.9731 20.5138 18.5739 20.6972 18.1034C20.8731 17.6482 20.9938 17.1281 21.0296 16.3666C21.0639 15.6034 21.0728 15.3601 21.0728 13.4167C21.0728 11.4734 21.0639 11.2295 21.0296 10.4662C20.9938 9.70446 20.8731 9.18448 20.6972 8.7295C20.5138 8.25887 20.2693 7.85965 19.8713 7.46191C19.4732 7.06388 19.0752 6.8194 18.6041 6.63678C18.148 6.45983 17.6277 6.33922 16.8659 6.30434C16.1026 6.26961 15.8597 6.26111 13.9157 6.26111H13.9179ZM13.2761 7.55063C13.4666 7.55033 13.6792 7.55063 13.918 7.55063C15.8286 7.55063 16.055 7.55749 16.8095 7.59177C17.5072 7.62368 17.8858 7.74025 18.1381 7.8382C18.472 7.96789 18.7101 8.12293 18.9604 8.37338C19.2108 8.62382 19.3658 8.86235 19.4958 9.19627C19.5938 9.44821 19.7105 9.82686 19.7423 10.5245C19.7765 11.2789 19.784 11.5055 19.784 13.4151C19.784 15.3248 19.7765 15.5514 19.7423 16.3057C19.7104 17.0034 19.5938 17.382 19.4958 17.634C19.3661 17.9679 19.2108 18.2057 18.9604 18.456C18.7099 18.7064 18.4721 18.8614 18.1381 18.9911C17.8861 19.0895 17.5072 19.2058 16.8095 19.2377C16.0552 19.272 15.8286 19.2795 13.918 19.2795C12.0073 19.2795 11.7809 19.272 11.0265 19.2377C10.3289 19.2055 9.95022 19.0889 9.69784 18.991C9.36391 18.8613 9.12539 18.7063 8.87494 18.4558C8.62449 18.2054 8.46945 17.9674 8.33946 17.6334C8.24152 17.3814 8.12479 17.0028 8.09304 16.3051C8.05875 15.5508 8.05189 15.3242 8.05189 13.4133C8.05189 11.5025 8.05875 11.2771 8.09304 10.5227C8.12494 9.82508 8.24152 9.44642 8.33946 9.19419C8.46916 8.86026 8.62449 8.62174 8.87494 8.37129C9.12539 8.12084 9.36391 7.9658 9.69784 7.83581C9.95007 7.73742 10.3289 7.62114 11.0265 7.58909C11.6867 7.55928 11.9425 7.55033 13.2761 7.54884V7.55063ZM17.7375 8.73877C17.2635 8.73877 16.8789 9.12293 16.8789 9.59714C16.8789 10.0712 17.2635 10.4558 17.7375 10.4558C18.2116 10.4558 18.5962 10.0712 18.5962 9.59714C18.5962 9.12308 18.2116 8.73847 17.7375 8.73847V8.73877ZM13.918 9.74204C11.8886 9.74204 10.2432 11.3874 10.2432 13.4168C10.2432 15.4461 11.8886 17.0907 13.918 17.0907C15.9473 17.0907 17.5921 15.4461 17.5921 13.4168C17.5921 11.3874 15.9472 9.74204 13.9178 9.74204H13.918ZM13.9179 11.0315C15.2352 11.0315 16.3031 12.0993 16.3031 13.4167C16.3031 14.734 15.2352 15.8019 13.9179 15.8019C12.6005 15.8019 11.5327 14.734 11.5327 13.4167C11.5327 12.0993 12.6005 11.0315 13.9179 11.0315Z" fill="black"/>
</g>
</svg>
