<svg width="28" height="27" viewBox="0 0 28 27" fill="none" xmlns="http://www.w3.org/2000/svg">
<path fill-rule="evenodd" clip-rule="evenodd" d="M0.833496 13.4167C0.833496 6.00685 6.84034 0 14.2502 0C21.66 0 27.6668 6.00685 27.6668 13.4167C27.6668 20.8265 21.66 26.8333 14.2502 26.8333C6.84034 26.8333 0.833496 20.8265 0.833496 13.4167Z" fill="#4C6C91"/>
<path fill-rule="evenodd" clip-rule="evenodd" d="M14.9521 17.8196C14.9521 17.8196 15.2104 17.7914 15.3427 17.6519C15.4638 17.5241 15.4596 17.283 15.4596 17.283C15.4596 17.283 15.4435 16.1569 15.9762 15.9906C16.5011 15.8271 17.1752 17.0796 17.8905 17.5613C18.4309 17.9254 18.8411 17.8457 18.8411 17.8457L20.7527 17.8196C20.7527 17.8196 21.7522 17.7591 21.2783 16.9875C21.2391 16.9243 21.0018 16.4166 19.8574 15.3736C18.6584 14.2818 18.8194 14.4584 20.2627 12.5696C21.1418 11.4195 21.4932 10.7173 21.3833 10.417C21.279 10.1298 20.6323 10.2061 20.6323 10.2061L18.4806 10.2192C18.4806 10.2192 18.321 10.1979 18.2027 10.2673C18.0872 10.3353 18.0123 10.494 18.0123 10.494C18.0123 10.494 17.6722 11.3838 17.2179 12.1409C16.2596 13.7377 15.8768 13.8222 15.72 13.7232C15.3553 13.4917 15.4463 12.7943 15.4463 12.2989C15.4463 10.751 15.6857 10.1058 14.9808 9.93884C14.747 9.88318 14.5748 9.84677 13.9764 9.84059C13.2085 9.83303 12.559 9.84333 12.1908 10.0199C11.9458 10.1374 11.7568 10.3999 11.8723 10.415C12.0144 10.4335 12.3364 10.5002 12.5072 10.7283C12.7277 11.023 12.72 11.684 12.72 11.684C12.72 11.684 12.8467 13.5061 12.4239 13.7322C12.1341 13.8875 11.7365 13.5707 10.8819 12.1217C10.4444 11.3796 10.114 10.5593 10.114 10.5593C10.114 10.5593 10.0503 10.406 9.93623 10.3236C9.79834 10.224 9.60585 10.1931 9.60585 10.1931L7.56127 10.2061C7.56127 10.2061 7.25399 10.2144 7.1413 10.3456C7.04121 10.4617 7.1336 10.7029 7.1336 10.7029C7.1336 10.7029 8.7344 14.3794 10.5473 16.2324C12.2097 17.9309 14.0968 17.8196 14.0968 17.8196H14.9521Z" fill="white"/>
</svg>
