<svg width="28" height="27" viewBox="0 0 28 27" fill="none" xmlns="http://www.w3.org/2000/svg">
<path fill-rule="evenodd" clip-rule="evenodd" d="M0.666992 13.4167C0.666992 6.00685 6.67384 0 14.0837 0C21.4935 0 27.5003 6.00685 27.5003 13.4167C27.5003 20.8265 21.4935 26.8333 14.0837 26.8333C6.67384 26.8333 0.666992 20.8265 0.666992 13.4167Z" fill="#FF0000"/>
<path fill-rule="evenodd" clip-rule="evenodd" d="M20.9403 10.1034C20.7757 9.47114 20.2907 8.97326 19.675 8.80428C18.559 8.49719 14.0838 8.49719 14.0838 8.49719C14.0838 8.49719 9.60855 8.49719 8.49252 8.80428C7.87674 8.97326 7.39179 9.47114 7.22721 10.1034C6.92822 11.2493 6.92822 13.6402 6.92822 13.6402C6.92822 13.6402 6.92822 16.0311 7.22721 17.1771C7.39179 17.8094 7.87674 18.3072 8.49252 18.4763C9.60855 18.7833 14.0838 18.7833 14.0838 18.7833C14.0838 18.7833 18.559 18.7833 19.675 18.4763C20.2907 18.3072 20.7757 17.8094 20.9403 17.1771C21.2393 16.0311 21.2393 13.6402 21.2393 13.6402C21.2393 13.6402 21.2393 11.2493 20.9403 10.1034Z" fill="white"/>
<path fill-rule="evenodd" clip-rule="evenodd" d="M12.7419 16.1V11.6278L16.3197 13.864L12.7419 16.1Z" fill="#FF0000"/>
</svg>
